<?xml version="1.0" standalone="no"?>
<!DOCTYPE svg PUBLIC "-//W3C//DTD SVG 20010904//EN"
 "http://www.w3.org/TR/2001/REC-SVG-20010904/DTD/svg10.dtd">
<svg version="1.0" xmlns="http://www.w3.org/2000/svg"
 width="1102.000000pt" height="1444.000000pt" viewBox="0 0 1102.000000 1444.000000"
 preserveAspectRatio="xMidYMid meet">

<g transform="translate(0.000000,1444.000000) scale(0.100000,-0.100000)"
fill="#000000" stroke="none">
<path d="M4270 12450 c0 -5 5 -10 10 -10 6 0 10 5 10 10 0 6 -4 10 -10 10 -5
0 -10 -4 -10 -10z"/>
<path d="M3816 10981 c-4 -7 -3 -100 3 -209 9 -170 26 -909 26 -1160 l0 -84
-315 1 c-173 0 -496 3 -717 7 l-402 7 -12 -26 c-9 -20 -9 -30 -1 -40 8 -10 14
-116 18 -333 3 -175 7 -339 9 -364 1 -25 6 -153 9 -285 4 -132 11 -368 17
-525 6 -156 10 -316 10 -355 -1 -38 1 -99 4 -135 6 -96 24 -591 30 -850 3
-124 10 -371 16 -550 25 -820 29 -969 34 -1180 3 -124 8 -240 11 -258 5 -36
20 -41 40 -14 11 16 44 17 396 20 211 1 397 6 413 10 21 6 31 16 33 31 4 22 2
23 -35 16 -21 -5 -191 -9 -378 -10 -187 -1 -359 -6 -382 -10 -39 -7 -42 -6
-47 16 -4 21 -11 225 -21 684 -2 77 -8 256 -14 397 -6 142 -8 263 -6 270 4 10
40 12 158 10 173 -4 267 10 275 40 3 11 13 18 28 18 23 0 24 2 19 53 -2 28 -7
126 -10 217 -6 181 -11 210 -31 210 -26 0 -35 -37 -25 -98 6 -31 13 -129 16
-218 l5 -161 -88 -12 c-48 -6 -146 -10 -218 -10 l-131 1 -7 162 c-3 88 -11
341 -17 561 -6 220 -14 469 -17 553 -4 85 -6 154 -5 155 1 1 88 -1 195 -4 106
-4 283 -10 393 -13 110 -4 228 -9 263 -12 57 -5 62 -4 62 15 0 11 -3 22 -7 24
-5 3 -73 8 -153 11 -80 4 -215 11 -300 17 -85 5 -219 11 -297 12 -78 1 -147 7
-152 12 -5 6 -14 168 -21 360 -6 193 -13 402 -15 465 -15 417 -27 814 -28 925
l0 130 225 3 225 2 8 -202 c4 -112 9 -206 12 -210 2 -5 13 -8 25 -8 20 0 20 3
17 208 l-4 207 437 0 437 0 6 -60 c6 -63 22 -438 32 -739 l6 -179 -33 6 c-18
4 -115 7 -216 7 l-184 0 0 98 c0 53 -5 129 -10 169 -5 40 -10 99 -11 132 -2
69 -9 84 -35 79 -20 -4 -21 -14 -11 -118 2 -30 8 -100 11 -155 4 -55 9 -124
11 -152 l5 -53 -47 0 c-118 0 -355 24 -360 37 -8 21 -41 15 -48 -8 -4 -12 -4
-63 -1 -113 3 -50 9 -145 12 -211 3 -66 9 -124 14 -129 5 -5 16 -6 25 -2 15 6
16 22 11 164 -4 86 -9 175 -13 196 l-5 39 53 -6 c95 -11 297 -18 549 -20 170
-1 251 -6 266 -14 20 -12 21 -22 27 -255 16 -581 19 -628 37 -638 9 -5 55 -7
101 -5 68 3 285 -12 297 -21 2 -1 7 -57 12 -124 13 -179 30 -178 23 1 -3 79
-3 142 -1 139 6 -5 24 -381 34 -706 l6 -201 -94 -5 c-51 -3 -136 -3 -188 1
l-95 6 -2 50 c-3 41 -21 170 -59 413 -4 23 -10 32 -24 32 -25 0 -25 -18 -1
-180 29 -183 37 -320 21 -330 -7 -4 -10 -15 -7 -24 5 -13 34 -15 226 -12 l220
3 5 -71 c3 -39 9 -167 13 -285 7 -185 10 -215 25 -225 9 -5 20 -8 23 -5 3 4 0
120 -6 260 -13 284 -14 308 -8 313 2 2 65 7 139 10 74 3 169 9 211 12 l76 7 7
-199 c12 -298 17 -339 41 -339 23 0 23 -7 6 210 -6 77 -13 288 -16 470 -3 181
-8 331 -10 333 -3 3 -12 -1 -21 -9 -14 -11 -16 -32 -14 -134 2 -66 2 -159 1
-206 l-1 -86 -91 5 c-54 3 -99 1 -112 -6 -12 -6 -66 -13 -119 -16 l-96 -5 -6
62 c-8 81 -29 710 -28 807 1 121 24 111 -228 108 -121 -1 -221 0 -223 2 -4 5
-26 616 -33 900 -4 185 -24 686 -34 835 -5 94 -4 136 4 150 8 14 10 70 5 200
-4 99 -10 344 -13 545 -3 201 -9 440 -12 533 l-6 167 214 -1 c286 -2 715 -13
721 -19 3 -3 9 -103 13 -223 7 -228 15 -265 48 -238 12 10 67 15 210 17 l193
4 7 -92 c3 -50 7 -224 7 -387 2 -408 9 -525 31 -529 16 -3 17 13 11 243 -5
207 -4 248 8 256 8 5 64 6 124 3 61 -3 153 -6 205 -7 l95 -3 5 -234 c3 -149 9
-234 15 -232 6 1 10 174 10 494 l0 492 193 1 192 2 0 -268 c0 -169 4 -270 10
-274 19 -12 22 24 25 277 6 480 11 653 19 667 6 9 21 11 50 7 22 -3 104 -6
181 -7 77 0 149 -3 161 -6 20 -4 21 -12 28 -236 4 -128 9 -234 12 -236 16 -16
19 40 14 234 -3 121 -2 224 2 229 3 4 101 4 220 0 l213 -9 2 -70 c2 -38 9
-214 17 -390 8 -176 14 -385 13 -465 -1 -80 2 -315 7 -522 l9 -378 -190 0
c-159 0 -193 -3 -203 -15 -7 -9 -10 -19 -6 -22 4 -4 94 -6 200 -4 l193 3 -3
-434 c-2 -238 -3 -466 -4 -505 l0 -73 -204 0 c-113 0 -207 4 -210 8 -3 5 -1
61 4 125 17 203 20 419 7 414 -8 -2 -14 -62 -19 -198 -4 -107 -12 -218 -18
-248 -5 -30 -10 -71 -10 -91 l0 -37 108 -5 c59 -4 159 -7 222 -7 63 -1 117 -4
120 -7 3 -3 5 -94 5 -202 l0 -197 239 -3 c232 -2 276 2 250 28 -5 5 -106 11
-229 12 l-220 4 -1 654 c-1 360 1 679 4 708 l5 52 214 0 c183 0 214 2 220 15
3 9 3 18 0 21 -3 3 -103 5 -223 4 l-219 0 0 177 c1 98 2 197 3 221 l2 42 195
0 c139 0 201 -4 216 -12 17 -11 22 -10 35 6 8 11 14 28 14 39 0 15 -5 18 -23
13 -33 -8 -437 -9 -445 -1 -4 4 -7 194 -8 423 0 392 -20 949 -33 971 -6 9
-565 26 -856 26 l-110 0 -3 -201 -2 -202 -197 -1 c-188 -1 -198 -2 -220 -23
-21 -19 -23 -29 -18 -77 2 -31 7 -140 10 -242 l5 -186 -117 4 c-65 2 -159 6
-209 9 l-90 6 -3 206 c-2 114 -6 225 -10 246 l-6 40 -221 -3 -221 -3 -1 213
c-1 171 -5 216 -16 227 -16 16 -171 24 -742 38 -218 5 -293 4 -298 -5z"/>
<path d="M4330 10408 c0 -29 4 -136 10 -238 5 -102 12 -239 15 -305 13 -300
18 -371 27 -382 25 -31 29 5 22 176 -4 97 -8 200 -8 229 l-1 54 48 18 c42 16
62 17 160 10 62 -5 128 -12 148 -16 l36 -6 7 -115 c4 -64 11 -138 16 -166 6
-27 10 -82 10 -122 0 -49 4 -76 13 -84 8 -6 17 -8 20 -4 10 9 8 118 -3 193 -5
36 -12 117 -15 180 -9 171 3 155 -122 174 -132 20 -242 21 -287 2 l-34 -14 -7
81 c-4 45 -10 149 -13 232 -6 132 -9 150 -24 153 -15 3 -18 -4 -18 -50z"/>
<path d="M6680 9868 c0 -87 19 -373 26 -397 3 -9 8 -11 14 -5 9 9 1 212 -16
422 -8 90 -24 76 -24 -20z"/>
<path d="M8068 9498 c-8 -4 -9 -222 -5 -717 l6 -711 -224 0 c-226 0 -251 -4
-224 -36 10 -13 43 -14 230 -9 l217 6 6 -133 c3 -73 8 -388 12 -699 5 -542 5
-567 -13 -574 -10 -4 -103 -10 -206 -13 -182 -4 -188 -5 -185 -25 3 -19 9 -20
133 -19 72 1 170 5 219 9 l89 6 -7 788 c-3 433 -8 794 -11 801 -2 7 -6 293 -9
635 -5 582 -5 621 12 628 25 11 409 18 415 8 2 -4 8 -244 11 -533 3 -289 8
-622 11 -740 3 -118 10 -465 16 -770 11 -653 18 -964 28 -1380 5 -168 7 -308
5 -311 -3 -6 -638 -14 -1137 -14 -242 0 -248 0 -245 -20 3 -19 12 -20 231 -23
l227 -2 1 -38 c1 -20 4 -127 8 -237 5 -168 8 -200 21 -200 13 0 14 31 11 237
-3 196 -1 238 10 242 8 3 206 7 441 8 323 2 429 0 432 -9 3 -6 8 -204 11 -440
3 -235 8 -442 11 -460 6 -39 -5 -47 -76 -50 -30 -2 -108 -6 -172 -9 l-118 -7
-2 209 c-3 193 -4 209 -21 212 -18 4 -19 -7 -16 -205 l3 -208 -340 -1 c-186
-1 -396 -5 -466 -9 l-128 -6 -1 33 c-7 314 2 428 31 428 19 0 10 29 -12 41
-18 10 -24 8 -40 -11 -16 -20 -18 -45 -18 -257 l0 -235 -27 7 c-16 4 -204 6
-420 6 -384 -1 -392 -1 -398 19 -8 26 -21 26 -28 0 -5 -19 -14 -20 -284 -21
-153 -1 -349 0 -436 1 -116 2 -161 -1 -173 -11 -13 -11 -14 -37 -9 -188 3 -97
8 -196 10 -221 l5 -45 -182 -3 c-207 -3 -289 -11 -295 -29 -9 -27 46 -33 205
-23 86 5 194 10 239 10 81 0 104 9 85 33 -13 16 -21 114 -24 285 l-2 143 430
2 429 2 2 -178 c1 -181 4 -207 23 -207 6 0 10 66 10 190 l0 190 268 1 c147 0
336 2 420 4 83 2 153 3 153 2 1 -1 4 -105 8 -232 5 -194 8 -230 21 -230 13 0
14 31 11 228 l-3 227 204 0 c111 0 323 3 470 7 l266 6 4 -241 c2 -174 6 -244
15 -253 7 -7 15 -10 19 -6 8 7 6 420 -2 465 l-6 32 186 0 186 0 0 -62 c0 -35
4 -196 8 -358 4 -162 7 -336 7 -387 l0 -92 -376 -6 c-313 -5 -378 -4 -387 8
-8 9 -13 90 -14 248 -3 216 -4 234 -21 237 -17 3 -18 -11 -16 -245 l1 -248
-461 -3 -461 -2 -1 177 c-1 228 -10 345 -26 351 -10 3 -13 -54 -13 -261 l0
-264 -287 -6 c-157 -4 -357 -7 -443 -7 l-157 0 -7 31 c-3 17 -6 104 -7 193 -1
185 -8 258 -27 264 -11 3 -12 -41 -7 -242 l6 -246 -318 -2 c-570 -3 -1860 -16
-2358 -23 -565 -9 -606 -8 -618 4 -8 8 -11 85 -12 246 l0 235 197 0 c161 0
199 -3 212 -15 8 -8 22 -15 30 -15 12 0 14 7 9 33 -3 17 -6 32 -7 33 -1 1
-110 4 -243 8 l-241 6 -4 -128 c-2 -70 -1 -203 0 -296 l4 -168 516 6 c285 3
879 8 1322 11 443 3 1023 7 1290 10 267 3 1039 7 1715 10 1143 6 1231 7 1243
23 15 19 13 218 -13 1072 -3 91 -7 307 -10 480 -7 406 -22 1062 -35 1500 -5
190 -12 514 -16 720 -3 206 -7 427 -9 490 -2 63 -7 431 -11 818 -5 489 -11
705 -18 710 -14 9 -474 9 -488 0z"/>
<path d="M4782 9134 c2 -13 16 -21 48 -26 43 -7 477 -34 755 -47 l130 -6 -4
-25 c-2 -14 -5 -118 -8 -232 l-4 -208 -203 0 c-166 0 -206 -3 -216 -15 -6 -8
-9 -18 -7 -22 3 -5 100 -9 215 -8 l209 0 5 -70 c3 -38 4 -131 4 -205 l-1 -135
-165 -6 c-179 -7 -234 -15 -250 -34 -18 -22 4 -26 72 -15 35 5 124 10 199 10
l137 0 4 -62 c3 -34 6 -251 7 -482 1 -231 4 -422 6 -424 2 -3 11 -2 18 1 13 5
14 134 10 935 -4 689 -3 931 6 936 6 4 11 19 11 33 l0 26 108 -7 c59 -4 160
-9 225 -12 l117 -6 1 -42 c0 -22 2 -284 4 -581 16 -2696 20 -3153 31 -3164 2
-3 9 0 15 6 7 7 9 76 7 203 l-3 192 90 -7 c50 -4 161 -9 248 -10 87 -2 161 -6
165 -10 4 -4 7 -28 7 -53 3 -336 5 -382 19 -382 8 0 16 7 20 15 5 13 2 322 -8
790 -4 165 -7 190 -21 193 -14 3 -16 -21 -13 -258 l3 -261 -190 5 c-172 4
-239 9 -301 21 -20 4 -21 8 -23 435 l-2 430 208 1 c114 0 229 0 256 -1 40 -1
47 1 47 18 0 25 -48 31 -178 23 -51 -3 -147 -4 -212 -2 l-120 3 0 229 0 228
173 -5 c386 -10 488 -14 621 -20 132 -7 138 -6 134 12 -2 12 -12 20 -28 21
-153 11 -480 24 -662 26 -130 1 -232 7 -237 12 -5 6 -11 415 -14 993 -3 541
-7 985 -9 988 -3 2 -47 6 -99 8 -52 3 -202 10 -334 16 -132 6 -341 17 -465 25
-124 8 -301 17 -394 21 -161 7 -168 6 -164 -12z"/>
<path d="M4291 8996 c-9 -10 -9 -37 -1 -102 6 -49 13 -186 16 -304 2 -118 7
-224 9 -236 2 -11 7 -52 11 -90 17 -197 23 -237 33 -247 8 -8 15 -7 25 3 14
15 12 75 -14 330 -5 52 -14 212 -19 355 -5 143 -13 270 -16 283 -8 25 -27 29
-44 8z"/>
<path d="M4804 8527 c13 -54 26 -454 20 -616 -10 -249 -6 -352 13 -373 14 -16
39 -18 240 -18 187 0 223 2 223 14 0 8 -4 17 -8 20 -4 2 -95 8 -202 12 -107 3
-202 10 -210 15 -13 6 -15 55 -15 336 -1 180 -5 397 -9 481 l-9 152 -24 0
c-21 0 -24 -4 -19 -23z"/>
<path d="M3275 7780 c3 -5 10 -10 16 -10 5 0 9 5 9 10 0 6 -7 10 -16 10 -8 0
-12 -4 -9 -10z"/>
<path d="M5373 7078 c-10 -13 -1 -522 15 -828 6 -122 9 -135 26 -138 19 -4 19
3 13 214 -4 121 -10 335 -13 477 -7 256 -15 308 -41 275z"/>
<path d="M3413 7024 c-6 -16 2 -723 13 -1183 6 -224 6 -233 -12 -227 -11 3
-105 7 -210 8 -143 2 -195 0 -206 -10 -17 -14 -16 -75 3 -232 26 -215 30 -230
56 -230 24 0 24 1 18 73 -4 39 -11 101 -17 137 -5 36 -12 99 -15 141 l-5 77
38 4 c22 3 109 3 195 0 l156 -5 6 -236 c3 -130 6 -321 7 -426 1 -104 5 -194
10 -199 5 -5 15 -6 23 -3 11 4 13 29 11 119 -1 62 -7 543 -13 1068 -13 1056
-15 1140 -37 1140 -8 0 -17 -7 -21 -16z"/>
<path d="M7213 6183 c-18 -2 -33 -7 -33 -11 1 -29 21 -31 365 -32 648 -2 615
-3 615 20 0 20 -7 20 -347 20 -192 0 -397 2 -458 4 -60 2 -125 2 -142 -1z"/>
<path d="M4434 5666 c-3 -8 2 -96 10 -196 9 -100 16 -204 16 -230 l0 -48 -72
-7 c-40 -3 -140 -5 -222 -3 l-149 3 -3 130 c-6 202 -15 335 -24 335 -25 0 -29
-31 -21 -136 5 -60 9 -169 8 -243 l-2 -133 355 3 c195 2 512 3 705 1 l349 -3
9 23 c5 14 2 71 -7 148 -8 69 -17 163 -18 210 l-3 85 140 8 c289 15 340 21
340 37 0 17 -23 17 -358 5 -177 -7 -179 -7 -173 -29 4 -11 11 -70 16 -131 5
-60 14 -153 20 -205 5 -52 10 -99 10 -104 0 -10 -847 -2 -858 8 -3 4 -9 75
-14 159 -4 84 -13 191 -20 240 -11 82 -22 105 -34 73z"/>
<path d="M100 4820 c0 -5 9 -10 20 -10 11 0 20 5 20 10 0 6 -9 10 -20 10 -11
0 -20 -4 -20 -10z"/>
<path d="M4421 4702 c-263 -2 -358 -5 -369 -15 -13 -10 -14 -36 -9 -162 4 -82
10 -192 13 -242 l7 -93 -229 -2 c-221 -3 -229 -4 -229 -23 0 -19 7 -20 190
-21 105 -1 227 1 273 4 71 4 82 7 82 23 0 11 -7 19 -15 19 -9 0 -19 10 -24 23
-17 45 -34 417 -20 432 4 3 196 5 428 5 375 0 422 2 428 16 3 8 0 21 -6 27
-13 13 -24 13 -520 9z"/>
</g>
</svg>
